<?xml version="1.0" encoding="iso-8859-1"?>
<!-- Generator: Adobe Illustrator 19.0.0, SVG Export Plug-In . SVG Version: 6.00 Build 0)  -->
<svg version="1.1" id="Layer_1" xmlns="http://www.w3.org/2000/svg" xmlns:xlink="http://www.w3.org/1999/xlink" x="0px" y="0px"
	 viewBox="0 0 512 512" style="enable-background:new 0 0 512 512;" xml:space="preserve">
<path style="fill:#82889D;" d="M291.31,222.205v-19.17H256h-35.31v19.17c0,4.682-1.86,9.173-5.171,12.484l-12.484,12.483
	L256,282.483l52.966-35.31l-12.484-12.484C293.171,231.378,291.31,226.887,291.31,222.205z"/>
<path style="fill:#464655;" d="M494.345,79.448H17.655C7.905,79.448,0,87.352,0,97.103v317.793c0,9.75,7.905,17.655,17.655,17.655
	h476.69c9.75,0,17.655-7.905,17.655-17.655V97.103C512,87.352,504.095,79.448,494.345,79.448z M485.517,353.103H26.483V105.931
	h459.034V353.103z"/>
<path style="fill:#C7CFE2;" d="M0,379.586v35.31c0,9.751,7.904,17.655,17.655,17.655h476.69c9.751,0,17.655-7.904,17.655-17.655
	v-35.31H0z"/>
<polygon style="fill:#AFB9D2;" points="326.621,503.172 185.379,503.172 194.207,432.552 317.793,432.552 "/>
<g>
	<polygon style="fill:#959CB3;" points="320,450.207 317.793,432.552 194.207,432.552 192,450.207 	"/>
	<circle style="fill:#959CB3;" cx="256" cy="406.069" r="13.241"/>
</g>
<path style="fill:#C7CFE2;" d="M326.621,512H185.379c-4.875,0-8.828-3.953-8.828-8.828l0,0c0-4.875,3.953-8.828,8.828-8.828h141.241
	c4.875,0,8.828,3.953,8.828,8.828l0,0C335.448,508.047,331.496,512,326.621,512z"/>
<g>
	<rect x="105.931" y="282.483" style="fill:#82889D;" width="61.793" height="70.621"/>
	<rect x="344.276" y="282.483" style="fill:#82889D;" width="61.793" height="70.621"/>
</g>
<path style="fill:#C7CFE2;" d="M405.277,262.115l-66.859-18.846L256,282.483l-82.418-39.213l-66.859,18.846
	c-5.689,1.604-9.62,6.795-9.62,12.706c0,4.737,2.538,9.111,6.652,11.461l42.193,24.11c8.04,4.594,13.096,13.053,13.335,22.308
	l0.527,20.402H256h96.19l0.527-20.402c0.239-9.256,5.295-17.715,13.335-22.308l42.193-24.11c4.114-2.35,6.652-6.724,6.652-11.461
	C414.897,268.91,410.966,263.72,405.277,262.115z"/>
<path style="fill:#D7DEED;" d="M338.418,243.27l-12.899-8.6c-4.838-3.225-10.952-3.862-16.35-1.703l-28.489,11.395
	c-4.487,1.794-8.041,5.35-9.835,9.835l-5.32,13.3c-1.537,3.842-5.316,6.166-9.454,6.156c-0.023,0-0.046,0-0.07,0
	c-0.023,0-0.046,0-0.07,0c-4.138,0.009-7.917-2.314-9.454-6.156l-5.32-13.301c-1.794-4.487-5.35-8.041-9.835-9.835l-28.489-11.395
	c-5.398-2.159-11.512-1.523-16.35,1.703l-12.899,8.6c8.878,23.278,27.299,41.815,50.481,50.851
	c-2.722,5.843-4.035,12.469-3.041,19.569c2.407,17.182,17.37,30.46,34.72,30.584c19.619,0.14,35.567-15.722,35.567-35.308
	c0-5.322-1.263-10.318-3.372-14.844C311.118,285.086,329.54,266.548,338.418,243.27z"/>
<circle style="fill:#00D2FF;" cx="256" cy="308.966" r="17.655"/>
<path style="fill:#D7DEED;" d="M194.207,150.069v24.341c0,7.023,2.791,13.76,7.756,18.727l19.797,19.797
	c4.967,4.967,11.702,7.756,18.727,7.756h31.027c7.023,0,13.76-2.791,18.727-7.756l19.797-19.797
	c4.967-4.967,7.756-11.702,7.756-18.727v-24.341H194.207z"/>
<g>
	<path style="fill:#C7CFE2;" d="M264.828,211.862h-17.655c-4.875,0-8.828-3.953-8.828-8.828l0,0c0-4.875,3.953-8.828,8.828-8.828
		h17.655c4.875,0,8.828,3.953,8.828,8.828l0,0C273.655,207.91,269.703,211.862,264.828,211.862z"/>
	<path style="fill:#C7CFE2;" d="M167.724,114.759V61.793c0-29.252,23.713-52.966,52.966-52.966h70.621
		c29.252,0,52.966,23.713,52.966,52.966v52.966H167.724z"/>
</g>
<g>
	<path style="fill:#959CB3;" d="M167.724,114.759v8.206c0,5.903,2.951,11.415,7.862,14.69l18.621,12.414v-44.138h-17.655
		C171.677,105.931,167.724,109.884,167.724,114.759z"/>
	<path style="fill:#959CB3;" d="M344.276,114.759v8.206c0,5.903-2.951,11.415-7.862,14.69l-18.621,12.414v-44.138h17.655
		C340.323,105.931,344.276,109.884,344.276,114.759z"/>
</g>
<path style="fill:#E4EAF6;" d="M283.78,26.483h-1.523c-2.915,0-5.551,1.736-6.703,4.414l0,0c-1.152,2.678-3.788,4.414-6.703,4.414
	h-25.7c-2.915,0-5.551-1.736-6.703-4.414l0,0c-1.152-2.678-3.788-4.414-6.703-4.414h-1.523c-32.033,0-56.735,28.214-52.501,59.966
	l8.393,62.948c0.765,5.734,4.951,10.42,10.563,11.822l19.503,4.876c4.119,1.03,7.555,3.86,9.356,7.704l1.617,3.452
	c2.322,4.959,7.303,8.126,12.778,8.126H256h18.071c5.475,0,10.455-3.168,12.777-8.126l1.617-3.453
	c1.801-3.846,5.237-6.675,9.356-7.704l19.503-4.876c5.612-1.402,9.799-6.089,10.563-11.822l8.393-62.95
	C340.514,54.697,315.812,26.483,283.78,26.483z"/>
<path style="fill:#D7DEED;" d="M198.621,132.414h114.759c4.875,0,8.828-3.953,8.828-8.828l0,0c0-4.875-3.953-8.828-8.828-8.828
	H198.621c-4.875,0-8.828,3.953-8.828,8.828l0,0C189.793,128.461,193.746,132.414,198.621,132.414z"/>
<path style="fill:#959CB3;" d="M264.828,0h-17.655c-4.875,0-8.828,3.953-8.828,8.828l0,0c0,4.875,3.953,8.828,8.828,8.828h17.655
	c4.875,0,8.828-3.953,8.828-8.828l0,0C273.655,3.953,269.703,0,264.828,0z"/>
<path style="fill:#C7CFE2;" d="M257.35,167.724h-2.699c-4.316,0-7.998-3.119-8.707-7.377l-7.598-45.589h35.31l-7.598,45.589
	C265.347,164.605,261.665,167.724,257.35,167.724z"/>
<g>
	<path style="fill:#00D2FF;" d="M203.034,123.586v1.591c0,4.207,2.97,7.831,7.096,8.657l26.483,5.297
		c5.462,1.092,10.559-3.085,10.559-8.657v-6.888c0-4.875-3.953-8.828-8.828-8.828h-26.483
		C206.987,114.759,203.034,118.711,203.034,123.586z"/>
	<path style="fill:#00D2FF;" d="M308.966,123.586v1.591c0,4.207-2.97,7.831-7.096,8.657l-26.483,5.297
		c-5.462,1.092-10.559-3.085-10.559-8.657v-6.888c0-4.875,3.953-8.828,8.828-8.828h26.483
		C305.013,114.759,308.966,118.711,308.966,123.586z"/>
</g>
<g>
	<path style="fill:#B8BFD4;" d="M194.207,344.276L194.207,344.276c-4.875,0-8.828-3.953-8.828-8.828v-8.828
		c0-4.875,3.953-8.828,8.828-8.828l0,0c4.875,0,8.828,3.953,8.828,8.828v8.828C203.034,340.323,199.082,344.276,194.207,344.276z"/>
	<path style="fill:#B8BFD4;" d="M317.793,344.276L317.793,344.276c-4.875,0-8.828-3.953-8.828-8.828v-8.828
		c0-4.875,3.953-8.828,8.828-8.828l0,0c4.875,0,8.828,3.953,8.828,8.828v8.828C326.621,340.323,322.668,344.276,317.793,344.276z"/>
</g>
<g>
</g>
<g>
</g>
<g>
</g>
<g>
</g>
<g>
</g>
<g>
</g>
<g>
</g>
<g>
</g>
<g>
</g>
<g>
</g>
<g>
</g>
<g>
</g>
<g>
</g>
<g>
</g>
<g>
</g>
</svg>
