<?xml version="1.0" encoding="iso-8859-1"?>
<!-- Generator: Adobe Illustrator 19.0.0, SVG Export Plug-In . SVG Version: 6.00 Build 0)  -->
<svg version="1.1" id="Layer_1" xmlns="http://www.w3.org/2000/svg" xmlns:xlink="http://www.w3.org/1999/xlink" x="0px" y="0px"
	 viewBox="0 0 512 512" style="enable-background:new 0 0 512 512;" xml:space="preserve">
<rect x="227.607" y="396.348" style="fill:#B0B0B0;" width="56.775" height="102.381"/>
<rect x="256.435" y="396.348" style="fill:#8B8B8B;" width="27.946" height="102.381"/>
<rect x="165.545" y="485.464" style="fill:#ECECED;" width="180.898" height="26.536"/>
<rect x="256.435" y="485.464" style="fill:#D7D7D7;" width="90.009" height="26.536"/>
<rect id="SVGCleanerId_0" x="52.555" y="149.561" style="fill:#575759;" width="406.89" height="243.563"/>
<g>
	<rect id="SVGCleanerId_0_1_" x="52.555" y="149.561" style="fill:#575759;" width="406.89" height="243.563"/>
</g>
<rect id="SVGCleanerId_1" x="256.435" y="149.561" style="fill:#2C2C2C;" width="202.999" height="243.563"/>
<g>
	<rect id="SVGCleanerId_1_1_" x="256.435" y="149.561" style="fill:#2C2C2C;" width="202.999" height="243.563"/>
</g>
<rect x="205.161" y="284.216" style="fill:#B0B0B0;" width="101.667" height="82.746"/>
<rect x="256" y="284.216" style="fill:#8B8B8B;" width="50.835" height="82.746"/>
<rect x="52.555" y="361.016" style="fill:#ECECED;" width="406.89" height="62.665"/>
<rect x="256" y="361.016" style="fill:#D7D7D7;" width="203.445" height="62.665"/>
<path style="fill:#575759;" d="M268.381,390.616c0,6.843-5.54,12.383-12.383,12.383c-6.845,0-12.385-5.54-12.385-12.383
	s5.539-12.383,12.385-12.383C262.841,378.232,268.381,383.772,268.381,390.616z"/>
<path style="fill:#2C2C2C;" d="M268.381,390.616c0,6.843-5.54,12.383-12.383,12.383v-24.767
	C262.841,378.232,268.381,383.772,268.381,390.616z"/>
<path style="fill:#D7D7D7;" d="M353.644,44.735C331.325,15.469,297.559,0,255.998,0s-75.327,15.469-97.646,44.735
	c-19.21,25.19-29.364,59.384-29.364,98.887c0,43.232,12.352,87.711,33.889,122.037c24.25,38.65,57.322,59.935,93.121,59.935
	s68.871-21.285,93.121-59.935c21.537-34.326,33.889-78.805,33.889-122.037C383.008,104.119,372.854,69.925,353.644,44.735z"/>
<path style="fill:#B0B0B0;" d="M353.644,44.735C331.325,15.469,297.559,0,255.998,0v325.593c35.799,0,68.871-21.285,93.121-59.935
	c21.537-34.326,33.889-78.805,33.889-122.037C383.008,104.119,372.854,69.925,353.644,44.735z"/>
<path style="fill:#444444;" d="M311.536,191.883c-18.867,0-34.216-15.35-34.216-34.217s15.349-34.216,34.216-34.216
	c18.867,0,34.217,15.35,34.217,34.216C345.753,176.534,330.403,191.883,311.536,191.883z"/>
<circle style="fill:#211915;" cx="311.536" cy="157.671" r="13.29"/>
<rect x="223.903" y="242.604" style="fill:#8B8B8B;" width="64.193" height="21.23"/>
<g>
	<rect x="256" y="242.604" style="fill:#6F6F6F;" width="32.096" height="21.23"/>
	<path style="fill:#6F6F6F;" d="M374.849,205.341l-75.569,13.631L284.712,320.86c7.96-2.676,15.676-6.474,23.071-11.336
		l10.347-72.376l49.388-8.908C370.326,220.802,372.776,213.146,374.849,205.341z"/>
	<path style="fill:#6F6F6F;" d="M342.346,32.023c-6.423-6.198-13.52-11.527-21.235-15.958v81.222h21.235V32.023z"/>
</g>
<path style="fill:#8B8B8B;" d="M166.242,157.667c0-18.867,15.35-34.216,34.217-34.216s34.216,15.35,34.216,34.216
	c0,18.867-15.349,34.217-34.216,34.217S166.242,176.534,166.242,157.667z"/>
<circle style="fill:#444444;" cx="200.464" cy="157.671" r="13.29"/>
<g>
	<path style="fill:#8B8B8B;" d="M137.147,205.341l75.569,13.631l14.568,101.889c-7.96-2.676-15.676-6.474-23.071-11.336
		l-10.347-72.376l-49.388-8.908C141.67,220.802,139.22,213.146,137.147,205.341z"/>
	<path style="fill:#8B8B8B;" d="M169.65,32.023c6.423-6.198,13.52-11.527,21.235-15.958v81.222H169.65V32.023z"/>
	<path style="fill:#8B8B8B;" d="M277.477,1.477v75.896l-21.479,12.158l-21.479-12.158V1.477c-7.395,1.045-14.483,2.644-21.235,4.788
		v83.489l42.713,24.178l42.713-24.178V6.265C291.96,4.121,284.872,2.524,277.477,1.477z"/>
</g>
<path style="fill:#6F6F6F;" d="M255.998,113.932l42.713-24.178V6.265c-6.752-2.144-13.839-3.742-21.235-4.788v75.896l-21.479,12.158
	v24.401H255.998z"/>
<g>
</g>
<g>
</g>
<g>
</g>
<g>
</g>
<g>
</g>
<g>
</g>
<g>
</g>
<g>
</g>
<g>
</g>
<g>
</g>
<g>
</g>
<g>
</g>
<g>
</g>
<g>
</g>
<g>
</g>
</svg>
